<svg xmlns="http://www.w3.org/2000/svg" viewBox="0 0 220 220" fill="none">
  <defs>
    <radialGradient id="hg" cx="50%" cy="42%" r="62%">
      <stop offset="0%" stop-color="#FBDB77"/>
      <stop offset="58%" stop-color="#F0C13B"/>
      <stop offset="100%" stop-color="#D8990F"/>
    </radialGradient>
    <path id="hlray" d="M110 3 C114 26 116 40 110 60 C104 40 106 26 110 3 Z" fill="#F3C63F"/>
    <path id="hsray" d="M110 26 C113 40 114 48 110 60 C106 48 107 40 110 26 Z" fill="#E7AE2A"/>
  </defs>
  <g>
    <use href="#hlray" transform="rotate(0 110 110)"/>
    <use href="#hlray" transform="rotate(30 110 110)"/>
    <use href="#hlray" transform="rotate(60 110 110)"/>
    <use href="#hlray" transform="rotate(90 110 110)"/>
    <use href="#hlray" transform="rotate(120 110 110)"/>
    <use href="#hlray" transform="rotate(150 110 110)"/>
    <use href="#hlray" transform="rotate(180 110 110)"/>
    <use href="#hlray" transform="rotate(210 110 110)"/>
    <use href="#hlray" transform="rotate(240 110 110)"/>
    <use href="#hlray" transform="rotate(270 110 110)"/>
    <use href="#hlray" transform="rotate(300 110 110)"/>
    <use href="#hlray" transform="rotate(330 110 110)"/>
    <use href="#hsray" transform="rotate(15 110 110)"/>
    <use href="#hsray" transform="rotate(45 110 110)"/>
    <use href="#hsray" transform="rotate(75 110 110)"/>
    <use href="#hsray" transform="rotate(105 110 110)"/>
    <use href="#hsray" transform="rotate(135 110 110)"/>
    <use href="#hsray" transform="rotate(165 110 110)"/>
    <use href="#hsray" transform="rotate(195 110 110)"/>
    <use href="#hsray" transform="rotate(225 110 110)"/>
    <use href="#hsray" transform="rotate(255 110 110)"/>
    <use href="#hsray" transform="rotate(285 110 110)"/>
    <use href="#hsray" transform="rotate(315 110 110)"/>
    <use href="#hsray" transform="rotate(345 110 110)"/>
  </g>
  <circle cx="110" cy="110" r="55" fill="url(#hg)"/>
  <circle cx="110" cy="110" r="55" fill="none" stroke="#C6881A" stroke-opacity=".35" stroke-width="2"/>
  <g fill="#B57A16">
    <path d="M89 100 q7 -11 14 0 q-7 5 -14 0 Z"/>
    <path d="M117 100 q7 -11 14 0 q-7 5 -14 0 Z"/>
    <path d="M88 118 q22 22 44 0 q-22 12 -44 0 Z"/>
  </g>
</svg>
